<svg id="Layer_1" data-name="Layer 1" xmlns="http://www.w3.org/2000/svg" viewBox="0 0 248.7 201.42"><circle id="Ellipse_120" data-name="Ellipse 120" cx="122.45" cy="99.23" r="82.24" fill="#fff"/><g id="noun_call_2640501" data-name="noun call 2640501"><g id="Group_129" data-name="Group 129"><path id="Path_385" data-name="Path 385" d="M158,120.56,146,112.21a9.22,9.22,0,0,0-12.84,2.27v0l-2.77,4a102.73,102.73,0,0,1-14.79-12.43,102.73,102.73,0,0,1-12.43-14.79l4-2.77a9.25,9.25,0,0,0,2.29-12.86L101.11,63.7a9.22,9.22,0,0,0-7.54-4,8.71,8.71,0,0,0-3,.53,16.33,16.33,0,0,0-3.11,1.53L85.83,63a11.47,11.47,0,0,0-1.16,1,16.56,16.56,0,0,0-4.25,7.57C77,84.46,85.5,104,101.63,120.09,115.17,133.63,131.46,142,144.08,142h0a23.42,23.42,0,0,0,6.07-.74,16.65,16.65,0,0,0,7.57-4.25,11.65,11.65,0,0,0,1.09-1.24l1.17-1.66a17.65,17.65,0,0,0,1.49-3A9.08,9.08,0,0,0,158,120.56Zm0,9.26a12.76,12.76,0,0,1-1.08,2.27l-1.06,1.49a8.07,8.07,0,0,1-.73.82,13,13,0,0,1-5.92,3.29,19.59,19.59,0,0,1-5.11.62h0c-11.7,0-27-8-39.85-20.88-15-15-23.31-33.47-20.25-45a12.89,12.89,0,0,1,3.29-5.91,9.59,9.59,0,0,1,.75-.68l1.49-1.06a12.75,12.75,0,0,1,2.35-1.14,5.07,5.07,0,0,1,1.72-.31,5.54,5.54,0,0,1,4.52,2.42l8.35,11.93a5.55,5.55,0,0,1-1.37,7.71l-5.44,3.8a1.84,1.84,0,0,0-.5,2.48A102,102,0,0,0,113,108.62a102,102,0,0,0,16.91,13.89,1.84,1.84,0,0,0,2.48-.5l3.8-5.44a5.67,5.67,0,0,1,7.71-1.37l11.93,8.35a5.4,5.4,0,0,1,2.12,6.28Z" fill="#662a91"/><path id="Path_386" data-name="Path 386" d="M151.82,69.84A46.12,46.12,0,0,0,122.1,56.41a1.85,1.85,0,1,0-.23,3.69,42.43,42.43,0,0,1,39.69,39.69,1.84,1.84,0,0,0,1.84,1.73h.12a1.85,1.85,0,0,0,1.72-2h0A46.06,46.06,0,0,0,151.82,69.84Z" fill="#662a91"/><path id="Path_387" data-name="Path 387" d="M121.17,71.16a31.36,31.36,0,0,1,29.33,29.33,1.85,1.85,0,0,0,1.84,1.73h.12a1.84,1.84,0,0,0,1.73-2h0a35.06,35.06,0,0,0-32.78-32.78,1.85,1.85,0,0,0-.23,3.69Z" fill="#662a91"/><path id="Path_388" data-name="Path 388" d="M120.48,82.21a20.3,20.3,0,0,1,19,19,1.83,1.83,0,0,0,1.84,1.73h.12a1.83,1.83,0,0,0,1.72-2h0a24,24,0,0,0-22.41-22.44,1.85,1.85,0,0,0-.23,3.69h0Z" fill="#662a91"/></g></g></svg>