<svg id="Layer_1" data-name="Layer 1" xmlns="http://www.w3.org/2000/svg" viewBox="0 0 248.7 201.42"><circle id="Ellipse_120" data-name="Ellipse 120" cx="123.61" cy="98.49" r="82.24" fill="#00bdab"/><g id="Group_131" data-name="Group 131"><path id="Path_382" data-name="Path 382" d="M168.14,82.57l-34.2,32.5-7.72-8.77-8.31,7.33,16,18,42.55-39.35Z" fill="#662a91"/><g id="Group_126" data-name="Group 126"><path id="Path_383" data-name="Path 383" d="M133.76,134.85l-19-21.42,11.67-10.27,7.66,8.69,15.78-15a35.79,35.79,0,0,0-14.67-8.72,21.81,21.81,0,1,0-21.09,0A35.1,35.1,0,0,0,89,121.59c0,19.32,16,22.65,35.65,22.65s35.66-3.32,35.66-22.65a34.61,34.61,0,0,0-1.48-9.9Z" fill="#662a91"/></g><path id="Path_384" data-name="Path 384" d="M117.89,113.63l8.31-7.32,7.72,8.76,34.22-32.5,8.34,9.75-42.56,39.35Z" fill="#662a91"/></g><circle id="Ellipse_120-2" data-name="Ellipse 120" cx="123.61" cy="98.49" r="82.24" fill="#00bdab"/><g id="Group_131-2" data-name="Group 131"><path id="Path_382-2" data-name="Path 382" d="M167.14,82.57l-34.2,32.5-7.72-8.77-8.31,7.33,16,18,42.55-39.35Z" fill="#662a91"/><g id="Group_126-2" data-name="Group 126"><path id="Path_383-2" data-name="Path 383" d="M132.76,134.85l-19-21.42,11.67-10.27,7.66,8.69,15.78-15a35.79,35.79,0,0,0-14.67-8.72,21.81,21.81,0,1,0-21.09,0A35.1,35.1,0,0,0,88,121.59c0,19.32,16,22.65,35.65,22.65s35.66-3.32,35.66-22.65a34.61,34.61,0,0,0-1.48-9.9Z" fill="#662a91"/></g><path id="Path_384-2" data-name="Path 384" d="M116.89,113.63l8.31-7.32,7.72,8.76,34.22-32.5,8.34,9.75-42.56,39.35Z" fill="#662a91"/></g></svg>